<?xml version="1.0" standalone="no"?>
<!DOCTYPE svg PUBLIC "-//W3C//DTD SVG 20010904//EN"
 "http://www.w3.org/TR/2001/REC-SVG-20010904/DTD/svg10.dtd">
<svg version="1.0" xmlns="http://www.w3.org/2000/svg"
 width="400.000000pt" height="400.000000pt" viewBox="0 0 400.000000 400.000000"
 preserveAspectRatio="xMidYMid meet">
<metadata>
Created by potrace 1.11, written by Peter Selinger 2001-2013
</metadata>
<g transform="translate(0.000000,400.000000) scale(0.100000,-0.100000)"
fill="#000000" stroke="none">
<path d="M0 3990 c0 -6 52 -10 135 -10 74 0 138 0 142 -1 4 0 9 4 11 10 3 8
-43 11 -142 11 -91 0 -146 -4 -146 -10z"/>
<path d="M310 3990 c0 -17 67 -16 85 1 5 5 -9 9 -38 9 -26 0 -47 -4 -47 -10z"/>
<path d="M762 3988 c4 -10 62 -13 248 -13 186 0 244 3 247 13 4 9 -50 12 -247
12 -197 0 -251 -3 -248 -12z"/>
<path d="M1282 3988 c3 -9 43 -15 129 -19 68 -3 125 -7 126 -8 6 -5 33 -66 33
-77 0 -7 15 -15 33 -19 57 -12 161 -46 212 -69 71 -32 158 -59 180 -55 24 5
30 25 10 33 -9 3 -14 2 -11 -3 7 -10 -22 -19 -44 -14 -9 2 -21 13 -28 24 -12
19 -11 20 23 13 23 -4 35 -2 35 5 0 6 -7 11 -15 11 -27 0 -15 20 13 21 15 0
21 3 15 6 -7 2 -13 13 -13 24 0 10 -6 19 -12 19 -29 -1 -108 -27 -102 -33 8
-8 -57 -37 -68 -31 -4 3 -5 11 -1 19 6 17 -1 19 -25 6 -12 -6 -24 -5 -37 5
-18 13 -18 14 0 14 25 0 81 18 125 40 19 10 56 21 82 25 43 7 46 6 42 -13 -4
-12 0 -22 10 -25 23 -9 116 16 116 30 0 7 6 13 14 13 8 0 16 5 18 11 3 8 13 7
33 -3 43 -22 88 -30 105 -18 12 8 9 16 -23 45 l-38 35 -470 0 c-372 0 -470 -3
-467 -12z"/>
<path d="M2825 3983 c20 -50 56 -302 51 -358 -8 -94 -37 -197 -56 -202 -9 -2
-24 -17 -33 -33 l-17 -29 -67 35 c-37 19 -72 34 -79 34 -7 0 -15 8 -18 17 -5
12 -9 14 -18 5 -6 -6 -10 -13 -7 -14 2 -2 29 -16 59 -32 134 -71 466 -306 594
-420 60 -53 98 -83 221 -171 36 -26 210 -198 304 -300 81 -88 111 -131 111
-158 0 -29 -35 -90 -85 -145 l-47 -52 47 -118 c96 -240 103 -281 53 -312 -44
-27 -115 -50 -162 -53 l-39 -2 -22 90 c-12 50 -27 122 -35 160 -32 174 -58
256 -101 314 -112 151 -429 416 -573 479 -47 21 -42 6 15 -50 91 -89 131 -137
123 -151 -4 -6 -4 -9 1 -5 14 13 96 -145 125 -243 22 -74 25 -99 10 -99 -5 0
-10 12 -10 26 0 14 -9 37 -20 51 -11 14 -20 32 -20 40 0 7 -11 31 -25 53 -14
22 -25 42 -25 44 0 3 -16 22 -35 43 -39 43 -46 29 -15 -30 11 -20 20 -41 20
-47 0 -21 -16 -8 -35 28 -11 20 -38 60 -59 87 -96 119 -126 140 -126 86 0 -46
-9 -60 -44 -67 -23 -4 -43 0 -69 15 -36 20 -37 20 -37 2 0 -11 16 -40 35 -65
19 -26 35 -50 35 -55 0 -12 62 -101 99 -141 34 -38 34 -50 -1 -26 -12 9 -30
16 -39 16 -9 0 -24 9 -34 20 -10 11 -23 20 -28 20 -6 0 0 -11 13 -25 16 -17
21 -28 13 -36 -7 -7 -18 1 -36 25 -17 22 -23 36 -15 38 7 3 -8 18 -33 35 -53
36 -179 159 -179 173 0 6 -6 10 -12 10 -7 1 -21 11 -30 23 -41 51 -84 112
-104 144 -12 20 -26 38 -31 42 -5 3 -20 24 -33 46 -18 29 -26 35 -28 23 -2 -9
2 -26 7 -37 7 -11 7 -22 2 -25 -15 -9 -111 158 -98 170 8 8 204 -29 282 -53
58 -18 153 -62 161 -74 3 -5 15 -9 27 -9 20 0 20 2 -8 25 -27 22 -82 51 -142
76 -13 5 -33 13 -45 19 -40 16 -111 34 -153 36 -22 2 -49 5 -60 8 -11 2 -35 5
-53 5 -25 1 -35 6 -39 21 -3 11 -10 20 -15 20 -6 0 -8 -7 -5 -15 8 -19 4 -21
-93 -41 -83 -16 -144 -45 -155 -73 -9 -24 1 -23 63 9 40 20 74 30 104 30 24 0
49 5 55 11 14 14 33 4 33 -17 0 -8 4 -22 8 -32 5 -9 30 -61 56 -114 61 -126
142 -229 174 -221 16 4 39 -9 92 -51 38 -31 72 -56 75 -56 4 0 14 -8 23 -17
16 -15 15 -16 -16 -10 -19 4 -49 14 -67 23 -25 12 -53 15 -107 11 -71 -5 -73
-5 -132 36 -103 69 -165 124 -248 220 -10 11 -24 17 -33 13 -18 -6 -14 -15 43
-98 32 -48 31 -65 -3 -28 -10 11 -24 20 -31 20 -7 0 -17 6 -21 14 -4 7 -22 20
-38 29 -31 16 -125 111 -125 127 0 5 -6 13 -13 17 -17 10 -37 67 -37 103 0 26
26 60 47 60 5 0 58 25 118 56 88 46 114 55 146 52 55 -5 48 4 -19 25 -83 25
-157 36 -316 43 -155 7 -164 6 -333 -59 -192 -74 -376 -184 -493 -294 -30 -29
-69 -60 -87 -70 -34 -18 -43 -33 -20 -33 7 0 35 20 63 45 l51 44 119 2 c65 1
129 5 141 10 13 5 30 6 38 2 27 -10 10 -28 -28 -29 -21 -1 -45 -8 -55 -18 -10
-9 -22 -16 -26 -16 -11 0 -76 -72 -93 -105 -9 -16 -20 -33 -25 -36 -5 -3 -8
-26 -6 -50 l3 -44 31 66 c26 54 74 119 89 119 2 0 2 -37 -1 -81 -3 -46 0 -96
6 -114 13 -38 16 -164 6 -215 -4 -19 -10 -51 -13 -70 -5 -31 -7 -32 -12 -12
-12 48 -26 19 -29 -60 -5 -109 15 -247 40 -274 19 -22 24 -54 8 -54 -5 0 -10
5 -10 11 0 6 -11 20 -25 31 -14 11 -25 28 -25 39 0 11 -4 17 -10 14 -5 -3 -10
1 -10 10 0 8 -4 23 -9 33 -41 78 -59 254 -40 382 7 43 9 86 5 96 -7 18 -8 18
-18 -1 -17 -30 -48 -155 -48 -194 0 -20 -4 -42 -9 -49 -14 -23 -19 8 -10 63
11 72 11 147 -1 140 -5 -3 -10 -17 -10 -30 0 -13 -9 -45 -21 -71 -26 -62 -35
-180 -18 -258 6 -34 15 -65 20 -71 4 -5 10 -32 14 -60 12 -82 55 -164 55 -105
0 11 5 20 11 20 6 0 8 -7 5 -15 -3 -9 1 -18 9 -21 8 -4 15 -14 15 -23 0 -10 9
-36 20 -59 11 -22 20 -48 20 -56 0 -8 5 -18 10 -21 6 -3 10 -14 10 -23 0 -12
-3 -13 -12 -4 -7 7 -20 12 -30 12 -10 0 -18 5 -18 11 0 15 -26 39 -43 39 -8 0
-30 16 -51 36 -20 19 -40 32 -46 29 -12 -7 -36 30 -46 70 -4 17 -9 35 -13 40
-3 6 -6 15 -7 20 -2 6 -7 34 -13 64 -6 30 -13 56 -15 59 -9 8 -26 -10 -19 -21
4 -6 7 -31 8 -57 1 -25 5 -70 9 -100 7 -50 7 -53 -6 -30 -8 14 -20 34 -27 45
-6 11 -22 47 -34 79 -28 74 -47 84 -47 24 -1 -38 -2 -41 -13 -23 -8 13 -12 68
-12 165 l1 145 41 90 c35 76 51 135 35 135 -2 0 -16 -14 -32 -32 -16 -17 -32
-29 -35 -26 -3 3 0 12 7 20 19 21 40 59 35 65 -10 10 -58 -67 -53 -84 3 -10 1
-25 -4 -33 -8 -12 -10 -10 -10 9 0 20 -2 22 -15 11 -9 -7 -13 -20 -10 -30 3
-9 -3 -24 -14 -34 -11 -10 -23 -31 -26 -47 -4 -16 -11 -29 -16 -29 -5 0 -9
-12 -9 -27 0 -17 -3 -23 -8 -16 -5 8 -12 -3 -19 -30 -18 -66 -25 -145 -13
-152 5 -3 12 0 14 7 2 7 9 31 15 53 6 22 16 48 23 58 11 14 13 -6 13 -120 0
-135 1 -139 32 -203 36 -74 88 -140 108 -140 11 0 12 6 5 26 -6 14 -10 40 -10
57 l1 32 32 -40 c18 -21 44 -52 60 -67 l27 -29 0 -298 c0 -282 -3 -322 -30
-386 -5 -11 -11 -38 -14 -60 l-6 -40 26 55 c14 30 30 57 35 58 5 2 9 12 9 22
0 9 6 23 13 29 8 6 22 37 32 68 28 87 40 94 35 21 -1 -16 3 -28 9 -28 6 0 11
-10 11 -22 0 -14 -3 -18 -8 -12 -5 9 -11 8 -20 -2 -7 -8 -8 -14 -3 -14 6 0 8
-12 5 -29 -3 -16 -2 -37 4 -47 5 -11 13 -38 17 -60 l6 -42 -38 -6 c-21 -3 -57
-9 -80 -12 -40 -6 -60 -25 -47 -45 3 -5 13 -9 22 -9 9 0 24 -5 32 -10 13 -8
10 -14 -15 -34 -55 -44 -115 -104 -115 -115 0 -6 16 -19 35 -28 33 -16 39 -16
108 2 93 23 107 31 107 59 0 30 63 116 107 146 18 13 35 21 37 19 2 -2 9 -14
15 -27 14 -27 25 -28 49 -5 31 30 72 63 77 63 9 0 90 54 93 63 2 4 10 7 18 7
10 0 14 -12 14 -40 0 -46 15 -54 23 -12 8 35 43 92 58 92 6 0 8 -7 5 -16 -10
-27 13 -92 46 -130 28 -32 121 -94 141 -94 4 0 7 7 7 15 0 8 4 23 9 33 19 35
51 112 51 122 0 5 7 10 15 10 9 0 15 -9 15 -25 0 -14 9 -44 20 -68 22 -46 95
-135 104 -126 3 3 2 29 -3 57 -4 29 -5 51 -1 50 7 -3 76 -84 104 -123 7 -9 5
-19 -5 -31 -19 -23 -147 -84 -177 -84 -14 0 -22 -5 -20 -12 5 -15 40 -26 86
-27 17 -1 32 -5 32 -10 0 -5 -24 -27 -52 -49 -65 -50 -118 -98 -118 -106 0 -3
9 -6 19 -6 11 0 22 -4 25 -9 6 -10 -20 -35 -46 -44 -23 -8 -23 -25 -1 -23 22
1 30 -39 12 -60 -6 -8 -9 -17 -5 -21 9 -10 86 73 86 94 0 10 12 31 26 46 21
23 33 28 62 25 29 -2 36 -7 34 -21 -6 -34 13 -16 31 31 25 61 154 330 175 362
9 14 24 48 33 75 18 50 108 216 135 246 8 8 14 19 14 23 0 4 11 24 25 44 30
44 31 52 5 52 -29 0 -25 34 6 55 14 9 42 22 62 30 32 11 37 16 34 41 -5 38
-22 60 -33 42 -6 -9 -9 -6 -9 10 0 12 -3 22 -8 22 -4 0 -14 15 -21 32 -19 43
-89 126 -113 133 -10 4 -16 11 -13 16 4 5 1 9 -4 9 -6 0 -11 -15 -10 -32 0
-18 3 -27 6 -20 8 20 28 14 56 -18 25 -28 26 -30 7 -30 -19 0 -24 -10 -21 -37
3 -22 -17 -14 -24 8 -5 14 -2 25 6 30 11 6 11 11 1 21 -9 9 -12 9 -12 -1 0
-41 -63 -50 -75 -10 -6 19 -25 27 -25 9 0 -5 -12 2 -26 15 -24 22 -27 23 -42
8 -13 -13 -17 -13 -21 -2 -2 8 -11 19 -20 26 -9 6 -13 15 -9 19 4 4 16 1 25
-7 15 -11 16 -11 6 1 -10 11 -5 21 29 52 23 21 35 38 28 38 -21 0 -99 -81
-145 -150 l-43 -65 -78 -1 c-44 -1 -94 -5 -111 -9 -29 -6 -33 -5 -33 14 0 11
-4 21 -9 21 -5 0 -12 12 -16 28 -3 15 -12 41 -20 57 -7 17 -21 53 -31 82 -10
29 -28 65 -40 80 l-22 28 -54 -18 c-76 -26 -118 -47 -118 -57 0 -16 19 -12 74
16 28 14 58 30 67 35 18 8 37 -8 56 -46 17 -34 24 -75 13 -75 -5 0 -10 6 -10
14 0 8 -11 28 -25 43 l-25 28 6 -27 c7 -33 -15 -40 -23 -8 -6 22 -42 27 -60 9
-6 -6 -27 -11 -47 -12 -22 -1 -36 -6 -36 -14 0 -7 -10 -13 -23 -13 -13 0 -28
-5 -35 -12 -7 -7 -12 -8 -12 -2 0 6 16 19 35 30 35 19 42 28 26 38 -4 3 -11
25 -14 49 -6 46 -29 121 -52 172 -55 125 -95 273 -95 355 0 79 15 85 69 28 39
-42 51 -71 32 -82 -13 -8 -34 -141 -27 -164 4 -10 18 -24 31 -30 l25 -12 0 60
c0 77 17 154 38 173 9 9 30 19 46 23 27 7 29 6 22 -20 -5 -19 -3 -26 8 -26 8
0 18 -4 21 -10 10 -15 -14 -50 -34 -50 -36 0 -33 -97 5 -174 26 -49 65 -87 80
-75 8 7 26 6 57 -2 56 -14 100 3 105 41 5 28 33 54 43 38 13 -20 29 4 29 42 0
83 -63 195 -127 225 -44 21 -196 48 -236 42 -26 -3 -31 0 -44 31 -18 44 -28
231 -13 252 9 13 12 12 21 -5 17 -30 152 -158 185 -175 16 -8 31 -17 34 -20
30 -31 300 -101 300 -79 0 5 -4 9 -10 9 -5 0 -10 7 -10 16 0 12 7 15 28 11
100 -21 133 -26 185 -26 55 -1 74 10 40 23 -9 4 -20 1 -25 -6 -6 -10 -8 -10
-8 2 0 13 -2 13 -10 0 -8 -12 -11 -12 -28 3 -10 9 -23 17 -28 17 -5 0 -15 9
-22 20 -7 11 -19 20 -28 20 -8 0 -29 14 -46 30 -16 17 -33 30 -37 30 -7 0
-111 101 -159 153 -19 21 -32 22 -32 2 0 -28 -17 -15 -55 39 -25 37 -47 57
-65 61 -21 5 -29 14 -34 36 -3 16 -10 29 -16 29 -15 0 -23 -47 -17 -106 5 -51
4 -53 -14 -44 -10 6 -19 15 -19 20 0 5 -10 20 -22 33 -37 40 -58 71 -65 95 -6
27 4 42 16 23 6 -9 10 -7 14 8 3 12 0 21 -6 21 -7 1 -22 9 -35 20 -30 25 -22
58 16 65 48 10 166 44 197 56 24 9 57 19 68 19 4 0 23 7 43 15 20 8 42 15 48
15 16 0 47 -56 74 -135 13 -38 29 -77 35 -85 7 -8 21 -31 31 -50 10 -19 26
-42 35 -50 10 -8 29 -34 45 -58 21 -33 31 -42 46 -37 13 4 35 -4 64 -24 25
-17 49 -31 55 -31 6 0 11 -4 11 -9 0 -5 10 -13 23 -16 77 -22 93 -39 61 -65
-35 -29 -34 -46 1 -80 l34 -33 20 44 c24 51 53 86 98 117 34 24 66 31 45 10
-8 -8 -6 -17 9 -36 18 -24 18 -26 3 -44 -10 -10 -27 -18 -39 -18 -66 0 -34
-183 43 -251 30 -26 38 -29 40 -17 3 14 14 16 71 11 72 -6 111 6 111 33 0 18
38 53 58 54 6 0 12 -9 12 -20 0 -11 4 -20 9 -20 14 0 24 84 17 143 -6 47 -5
50 9 33 8 -11 18 -34 21 -53 3 -18 10 -36 15 -39 38 -23 -42 -234 -119 -318
l-27 -28 40 4 c22 3 48 8 58 12 29 14 21 -11 -66 -189 -46 -93 -89 -186 -97
-205 -7 -19 -21 -46 -30 -60 -18 -28 -32 -60 -25 -60 9 0 120 62 135 75 8 7
51 21 95 30 44 9 91 24 105 33 68 46 125 53 232 26 107 -26 117 -32 128 -78 6
-22 16 -56 21 -73 11 -34 4 -73 -12 -73 -5 0 -9 -7 -9 -16 0 -14 3 -14 15 -4
13 10 15 9 15 -9 0 -12 7 -35 14 -50 15 -28 12 -71 -5 -71 -5 0 -9 -7 -9 -15
0 -8 -4 -15 -8 -15 -5 0 -14 -11 -20 -25 -15 -32 -28 -32 -46 3 -25 48 -90
112 -114 112 -14 0 -26 8 -31 23 -14 36 -42 62 -103 96 -56 32 -57 33 -42 56
9 13 29 27 45 30 16 4 29 10 29 14 0 13 83 10 110 -4 14 -8 33 -16 43 -19 13
-4 17 -12 12 -28 -5 -21 -5 -21 5 -5 11 18 12 18 32 0 20 -18 21 -18 7 4 -7
12 -48 40 -90 62 -61 32 -87 41 -126 40 -26 0 -42 -3 -35 -6 7 -3 -14 -22 -49
-44 -59 -38 -63 -40 -120 -33 -55 6 -59 5 -59 -14 0 -15 7 -22 27 -24 14 -2
28 -7 29 -13 2 -5 -21 -37 -51 -70 -30 -32 -55 -65 -55 -72 0 -24 29 -13 62
24 18 20 48 51 66 68 l33 32 37 -18 c20 -11 46 -28 59 -39 13 -11 27 -20 32
-20 4 0 16 -9 25 -19 10 -11 30 -21 45 -23 20 -2 27 -9 29 -31 2 -15 13 -38
25 -51 12 -14 36 -39 52 -57 17 -18 30 -35 31 -38 0 -3 4 -17 8 -31 7 -27 -1
-55 -33 -105 -21 -33 -28 -119 -10 -130 13 -9 56 38 51 54 -2 7 5 15 17 18 22
6 30 43 10 43 -8 0 -8 5 1 15 16 19 34 20 27 1 -3 -8 1 -20 9 -26 8 -7 14 -18
14 -24 0 -7 10 -32 22 -57 11 -24 22 -60 24 -79 2 -22 12 -43 26 -55 22 -19
23 -25 18 -98 -3 -44 -2 -81 3 -84 4 -2 5 -13 2 -23 -3 -10 1 -25 10 -33 21
-22 19 -51 -8 -95 -13 -20 -31 -53 -40 -72 -22 -45 -65 -92 -78 -84 -15 9 -39
-16 -39 -40 0 -12 -6 -28 -12 -35 -11 -10 -8 -12 12 -9 16 2 30 14 38 32 8 15
27 36 43 45 16 9 29 23 29 31 0 13 1 13 11 0 8 -12 9 -11 5 6 -8 25 33 89 56
89 9 0 20 4 24 8 4 4 17 7 28 7 12 0 36 14 55 30 18 17 36 28 40 25 5 -2 11
-24 15 -47 4 -24 9 -53 13 -65 4 -18 1 -23 -13 -24 -15 0 -15 -2 -4 -6 21 -8
30 -24 30 -54 0 -14 6 -37 13 -52 12 -26 13 -27 110 -27 89 0 98 2 93 18 -3 9
-8 35 -12 57 -3 22 -12 49 -19 60 -20 32 -35 143 -35 256 0 57 -9 162 -20 233
-10 72 -17 132 -16 135 2 3 -2 40 -10 81 -7 41 -13 107 -13 145 l1 70 13 -75
c20 -110 45 -219 60 -265 7 -22 16 -55 20 -72 8 -40 25 -53 26 -21 1 13 0 28
-1 33 -6 30 -13 141 -10 165 8 57 110 -643 110 -755 l0 -65 50 0 c46 0 63 10
41 24 -5 3 -11 20 -13 38 -3 18 -12 67 -20 108 -23 109 -36 203 -43 300 -3 47
-10 105 -15 130 -10 50 -31 178 -35 225 -4 38 -8 56 -52 238 -19 81 -33 150
-30 153 3 3 17 -34 32 -83 15 -48 33 -101 40 -118 7 -16 18 -49 24 -72 7 -24
25 -72 41 -109 17 -36 30 -72 30 -79 0 -7 11 -35 25 -62 13 -26 41 -86 63
-133 21 -47 43 -96 49 -110 9 -19 11 41 10 265 l-1 290 -6 -220 c-3 -121 -8
-212 -12 -202 -11 27 -10 447 1 447 5 0 12 -6 14 -12 3 -7 6 405 6 916 1 815
-1 927 -14 916 -20 -17 -31 11 -15 39 13 26 0 27 -31 3 -30 -23 -91 -22 -114
1 -23 23 -29 22 -42 -13 -13 -34 -36 -41 -31 -8 2 11 -3 23 -9 25 -9 3 -13 -5
-13 -24 -1 -24 -2 -25 -11 -10 -6 9 -14 15 -19 12 -5 -3 -11 -1 -15 5 -3 5
-42 10 -86 10 -43 0 -79 4 -79 8 0 4 -12 15 -28 24 -20 12 -32 14 -45 6 -21
-11 -67 -3 -67 12 0 6 12 8 28 5 26 -6 26 -5 -4 9 -18 7 -35 19 -38 25 -4 5
-13 8 -21 4 -8 -3 -15 0 -15 5 0 6 -13 19 -29 28 -17 10 -27 22 -24 28 4 5 0
7 -8 4 -51 -19 -57 -19 -52 2 3 11 9 20 14 20 5 0 9 5 9 10 0 6 -6 10 -14 10
-7 0 -28 13 -47 29 -29 26 -31 31 -16 36 27 11 20 28 -8 21 -18 -5 -23 -3 -19
8 3 8 -5 21 -18 30 -12 9 -17 16 -10 16 18 0 15 18 -8 47 -18 24 -25 23 -20
-2 1 -5 -4 -4 -11 2 -17 17 3 54 58 107 25 24 43 50 43 64 0 31 -9 28 -47 -15
l-33 -38 4 56 c2 31 9 65 15 77 19 37 12 48 -12 18 -27 -33 -55 -29 -34 5 10
17 9 22 -7 34 -10 8 -24 16 -30 18 -7 2 -4 10 7 21 23 23 22 33 -8 52 -14 9
-25 23 -25 30 0 8 -9 23 -20 34 -17 17 -18 23 -8 46 11 22 9 28 -9 42 -25 20
-62 92 -56 109 8 23 -30 62 -61 63 -23 0 -27 -3 -21 -17z m295 -853 c0 -5 -4
-10 -10 -10 -5 0 -10 5 -10 10 0 6 5 10 10 10 6 0 10 -4 10 -10z m76 -68 c-6
-6 -56 29 -56 39 0 5 13 0 30 -12 16 -13 28 -24 26 -27z m82 -57 c15 -14 21
-25 14 -25 -20 0 -62 31 -56 41 8 13 12 12 42 -16z m52 -45 c0 -5 -7 -10 -15
-10 -8 0 -15 5 -15 10 0 6 7 10 15 10 8 0 15 -4 15 -10z m106 -84 c11 -8 15
-18 10 -23 -5 -4 -11 -2 -13 5 -3 6 -11 12 -19 12 -8 0 -14 5 -14 10 0 14 13
12 36 -4z m311 -68 c-3 -8 -6 -5 -6 6 -1 11 2 17 5 13 3 -3 4 -12 1 -19z
m-2507 -98 c0 -5 -4 -10 -10 -10 -5 0 -10 5 -10 10 0 6 5 10 10 10 6 0 10 -4
10 -10z m-37 -87 c-1 -18 -2 -75 -3 -125 -1 -51 -4 -84 -6 -73 -22 108 -27
125 -41 114 -11 -9 -13 -1 -13 48 0 67 4 75 39 71 21 -3 25 -8 24 -35z m312
-103 c3 -5 1 -10 -4 -10 -6 0 -11 5 -11 10 0 6 2 10 4 10 3 0 8 -4 11 -10z
m-490 -810 c3 -5 1 -10 -4 -10 -6 0 -11 5 -11 10 0 6 2 10 4 10 3 0 8 -4 11
-10z m2409 -190 c8 0 17 12 22 28 9 30 8 32 37 -248 17 -164 22 -450 8 -450
-5 0 -12 32 -16 70 -4 39 -10 72 -14 74 -13 8 -29 -9 -34 -34 -3 -16 -5 -9 -6
20 -2 25 -4 54 -7 65 -2 11 -7 64 -11 118 -3 55 -12 105 -19 115 -11 14 -14 4
-15 -73 -2 -153 1 -288 7 -326 3 -21 1 -40 -4 -43 -15 -9 -30 68 -37 189 -7
119 -18 170 -39 178 -10 4 -11 -4 -6 -35 7 -34 6 -38 -6 -26 -7 7 -24 57 -36
111 -18 82 -20 103 -10 131 7 18 12 52 12 77 1 36 2 41 11 25 6 -10 12 -65 13
-122 0 -56 3 -99 4 -93 7 18 22 9 23 -13 1 -19 2 -18 10 7 5 17 8 84 7 151 0
66 2 126 6 133 13 20 26 1 26 -39 0 -39 0 -39 29 -29 28 10 29 12 26 72 -1 36
-1 42 2 15 3 -31 9 -48 17 -48z m-554 61 c0 -5 -7 -14 -15 -21 -16 -14 -18
-10 -9 14 6 17 24 22 24 7z m-1440 -91 c0 -5 -9 -10 -20 -10 -11 0 -20 5 -20
10 0 6 9 10 20 10 11 0 20 -4 20 -10z m-95 -20 c3 -5 -1 -10 -10 -10 -9 0 -13
5 -10 10 3 6 8 10 10 10 2 0 7 -4 10 -10z m645 -112 c0 -14 -12 -8 -30 14 -10
13 -16 27 -13 32 6 8 42 -32 43 -46z m-46 7 c3 -8 1 -15 -4 -15 -6 0 -10 7
-10 15 0 8 2 15 4 15 2 0 6 -7 10 -15z m321 -36 c10 -15 2 -19 -23 -12 -12 3
-19 9 -16 14 7 12 31 11 39 -2z m-931 -70 l51 -1 -55 -15 c-30 -8 -73 -16 -95
-17 -22 -2 -75 -6 -118 -11 -63 -6 -77 -10 -73 -22 6 -15 -31 -63 -48 -63 -6
0 3 14 19 30 42 43 9 40 -55 -6 -43 -31 -50 -40 -50 -71 0 -20 -4 -32 -10 -28
-24 15 -1 115 27 115 7 0 13 4 13 9 0 35 228 96 314 85 16 -2 52 -4 80 -5z
m1921 -231 c22 -69 32 -113 28 -125 -3 -7 0 -13 6 -13 6 0 14 -18 17 -40 4
-22 10 -40 15 -40 5 0 9 -7 9 -15 0 -9 9 -28 19 -43 23 -31 40 -142 22 -142
-6 0 -11 -8 -11 -17 0 -13 3 -14 12 -5 22 22 30 12 23 -29 -5 -28 -4 -39 3
-35 10 6 25 -23 21 -40 -2 -5 3 -27 9 -48 12 -41 7 -86 -9 -86 -6 0 -27 -18
-49 -40 l-38 -39 -5 62 c-3 34 -5 90 -5 125 1 51 -3 67 -20 85 -18 19 -22 36
-22 84 0 33 -5 75 -11 92 -9 24 -9 35 0 44 6 6 11 18 11 26 0 12 -3 12 -12 3
-17 -17 -28 -15 -28 6 0 10 -4 22 -8 27 -4 6 -16 34 -26 63 -16 45 -16 57 -5
84 l13 31 19 -24 20 -24 -6 25 c-3 14 -9 35 -12 48 -4 12 -3 22 3 22 5 0 13
-10 17 -22z"/>
<path d="M3230 910 c0 -5 5 -10 11 -10 5 0 7 5 4 10 -3 6 -8 10 -11 10 -2 0
-4 -4 -4 -10z"/>
<path d="M3420 3995 c0 -10 40 -78 65 -114 14 -19 25 -46 25 -60 0 -18 3 -22
9 -12 6 9 11 10 15 3 4 -6 13 -9 21 -5 22 8 19 -44 -3 -58 -16 -10 -17 -18 -7
-78 6 -36 18 -82 26 -101 17 -38 33 -106 31 -130 -1 -8 22 -31 50 -50 63 -42
121 -116 149 -189 22 -59 30 -179 16 -243 -9 -43 8 -54 22 -15 16 42 34 49 97
38 32 -6 59 -11 61 -11 2 0 3 232 3 515 0 508 0 515 -20 515 -11 0 -20 -7 -20
-15 0 -8 -16 -30 -37 -50 -27 -26 -45 -35 -70 -35 -18 0 -50 -9 -70 -20 -45
-24 -84 -25 -123 -5 -38 20 -41 33 -16 77 11 20 17 40 13 45 -11 10 -37 -25
-37 -48 0 -9 -7 -30 -15 -45 -8 -16 -15 -37 -15 -46 0 -9 -4 -20 -10 -23 -6
-4 -10 5 -10 19 0 14 -4 26 -10 26 -5 0 -10 8 -10 18 0 10 -5 23 -12 30 -9 9
-9 18 0 37 7 14 12 28 12 30 0 3 -29 5 -65 5 -36 0 -65 -2 -65 -5z"/>
<path d="M2925 3940 c3 -5 8 -10 11 -10 2 0 4 5 4 10 0 6 -5 10 -11 10 -5 0
-7 -4 -4 -10z"/>
<path d="M2332 3911 c-20 -12 -10 -45 13 -49 11 -2 34 -10 52 -18 17 -8 36
-14 42 -14 7 0 23 -7 36 -16 18 -12 29 -13 42 -5 10 6 14 11 8 11 -5 0 -40 20
-77 44 -77 51 -98 59 -116 47z"/>
<path d="M1488 3853 c-32 -16 -37 -34 -8 -26 11 3 20 9 20 14 0 5 9 9 19 9 11
0 23 5 26 10 9 14 -25 10 -57 -7z"/>
<path d="M2545 3820 c-3 -5 -1 -10 4 -10 6 0 11 5 11 10 0 6 -2 10 -4 10 -3 0
-8 -4 -11 -10z"/>
<path d="M2500 3776 c0 -9 7 -16 16 -16 9 0 14 5 12 12 -6 18 -28 21 -28 4z"/>
<path d="M2446 3741 c-12 -13 -14 -21 -6 -26 17 -10 37 1 43 24 7 27 -14 28
-37 2z"/>
<path d="M2006 3732 c-6 -10 50 -35 66 -30 7 3 -3 12 -21 21 -39 20 -38 19
-45 9z"/>
<path d="M3140 3707 c0 -8 7 -20 15 -27 12 -10 15 -10 15 3 0 8 -7 20 -15 27
-12 10 -15 10 -15 -3z"/>
<path d="M2190 3706 c0 -2 7 -7 16 -10 8 -3 12 -2 9 4 -6 10 -25 14 -25 6z"/>
<path d="M2137 3683 c-7 -6 104 -63 123 -63 5 0 10 5 10 10 0 6 -6 10 -14 10
-7 0 -34 11 -60 25 -53 28 -50 27 -59 18z"/>
<path d="M2230 3682 c0 -5 7 -9 15 -9 8 0 15 4 15 9 0 4 -7 8 -15 8 -8 0 -15
-4 -15 -8z"/>
<path d="M2353 3673 c-14 -3 -23 -12 -23 -22 0 -10 -7 -24 -15 -31 -8 -7 -15
-17 -15 -22 0 -5 44 -29 98 -55 53 -25 100 -47 105 -50 4 -2 7 0 7 5 0 9 -69
51 -115 69 -16 6 -25 12 -19 12 7 1 14 9 18 19 3 9 11 24 17 33 7 9 9 24 6 33
-6 16 -20 18 -64 9z"/>
<path d="M939 3666 c-2 -3 -44 -6 -92 -7 l-87 -2 0 -38 c0 -45 5 -49 68 -55
44 -4 117 -15 190 -30 17 -3 32 -10 32 -15 0 -5 5 -9 10 -9 6 0 10 7 10 15 0
8 5 15 11 15 6 0 32 20 59 46 26 25 56 51 66 59 11 8 15 15 9 15 -220 9 -271
10 -276 6z m91 -96 c0 -5 -7 -10 -15 -10 -8 0 -15 5 -15 10 0 6 7 10 15 10 8
0 15 -4 15 -10z"/>
<path d="M0 2981 c0 -398 4 -681 9 -683 5 -1 11 -88 13 -191 3 -178 4 -188 23
-192 36 -8 275 -10 275 -3 0 5 15 6 34 3 l35 -4 1 247 c0 135 4 250 9 255 4 4
28 4 52 -2 24 -6 84 -12 133 -14 l88 -4 44 43 c45 42 58 72 28 60 -9 -4 -61
-13 -115 -21 -95 -14 -135 -12 -123 6 3 5 -6 9 -20 9 -14 0 -28 -4 -31 -10 -3
-5 -19 -10 -35 -10 l-29 0 2 584 c1 321 -1 587 -5 591 -3 4 -23 8 -44 9 l-37
3 8 -301 c7 -266 16 -772 15 -833 -1 -13 -1 -40 -1 -60 0 -21 -1 -76 -1 -123
-1 -47 -1 -113 -1 -147 0 -35 -4 -63 -8 -63 -5 0 -9 60 -10 133 -1 310 -10
791 -15 798 -2 4 -7 140 -9 301 l-5 293 -140 3 -140 3 0 -680z m340 -1017 c0
-21 -4 -33 -10 -29 -5 3 -10 19 -10 36 0 16 5 29 10 29 6 0 10 -16 10 -36z"/>
<path d="M448 3583 c-28 -7 -30 -2 67 -178 18 -33 55 -100 82 -150 75 -135
104 -184 113 -190 4 -3 17 14 29 38 40 81 67 125 119 190 29 37 52 70 52 74 0
5 -9 14 -20 21 -11 7 -20 21 -20 33 0 11 -4 17 -10 14 -5 -3 -10 -16 -10 -29
0 -29 -34 -61 -56 -52 -13 5 -14 9 -3 22 10 13 9 16 -8 20 -13 4 -23 17 -27
36 -6 33 -16 33 -20 1 -3 -21 -43 -30 -59 -14 -8 8 -6 11 7 11 26 0 13 25 -15
28 -57 6 -98 23 -93 37 4 8 1 15 -6 15 -11 0 -75 44 -95 66 -5 6 -18 9 -27 7z"/>
<path d="M2470 3575 c0 -18 23 -35 45 -34 18 0 17 2 -5 12 -14 6 -28 16 -32
22 -5 7 -8 7 -8 0z"/>
<path d="M3260 3480 c0 -5 5 -10 11 -10 5 0 7 5 4 10 -3 6 -8 10 -11 10 -2 0
-4 -4 -4 -10z"/>
<path d="M2645 3460 c-3 -5 1 -10 9 -10 9 0 16 5 16 10 0 6 -4 10 -9 10 -6 0
-13 -4 -16 -10z"/>
<path d="M2135 3000 c3 -5 15 -10 26 -10 10 0 19 5 19 10 0 6 -12 10 -26 10
-14 0 -23 -4 -19 -10z"/>
<path d="M2230 2978 c19 -5 50 -12 68 -15 18 -3 35 -9 38 -14 3 -5 15 -9 26
-9 12 0 18 3 14 7 -13 13 -121 43 -151 42 l-30 -1 35 -10z"/>
<path d="M2405 2930 c3 -5 14 -10 23 -10 15 0 15 2 2 10 -20 13 -33 13 -25 0z"/>
<path d="M2595 2850 c3 -5 13 -10 21 -10 8 0 14 5 14 10 0 6 -9 10 -21 10 -11
0 -17 -4 -14 -10z"/>
<path d="M2648 2833 c7 -3 16 -2 19 1 4 3 -2 6 -13 5 -11 0 -14 -3 -6 -6z"/>
<path d="M2698 2813 c7 -3 16 -2 19 1 4 3 -2 6 -13 5 -11 0 -14 -3 -6 -6z"/>
<path d="M725 2599 c-17 -11 -41 -25 -54 -30 -13 -5 -21 -12 -18 -15 7 -8 67
18 67 28 0 5 6 8 14 8 8 0 18 5 21 11 12 19 0 18 -30 -2z"/>
<path d="M575 2525 c-25 -12 -27 -14 -9 -15 12 0 35 7 50 15 23 12 25 15 9 14
-11 0 -33 -7 -50 -14z"/>
<path d="M520 2500 c0 -5 5 -10 10 -10 6 0 10 5 10 10 0 6 -4 10 -10 10 -5 0
-10 -4 -10 -10z"/>
<path d="M2400 2442 c0 -5 9 -17 20 -27 22 -20 26 -9 6 18 -14 18 -26 22 -26
9z"/>
<path d="M1940 2393 c0 -13 5 -23 10 -23 13 0 13 11 0 30 -8 12 -10 11 -10 -7z"/>
<path d="M1961 2340 c0 -18 27 -79 28 -64 1 7 -6 27 -14 45 -8 19 -14 27 -14
19z"/>
<path d="M1921 2274 c0 -11 3 -14 6 -6 3 7 2 16 -1 19 -3 4 -6 -2 -5 -13z"/>
<path d="M2021 2204 c0 -11 3 -14 6 -6 3 7 2 16 -1 19 -3 4 -6 -2 -5 -13z"/>
<path d="M2604 1965 c-4 -8 -16 -15 -29 -15 -44 0 -85 -13 -85 -26 0 -16 26
-19 35 -4 3 6 16 10 29 10 28 0 86 28 86 41 0 15 -30 10 -36 -6z"/>
<path d="M1640 1740 c0 -5 -9 -10 -19 -10 -11 0 -21 -5 -23 -11 -2 -6 -16 -11
-31 -11 -32 0 -44 -13 -21 -22 22 -9 104 29 104 48 0 9 -2 16 -5 16 -3 0 -5
-4 -5 -10z"/>
<path d="M817 1670 c3 -11 7 -20 9 -20 2 0 4 9 4 20 0 11 -4 20 -9 20 -5 0 -7
-9 -4 -20z"/>
<path d="M2 1020 c3 -531 4 -565 21 -564 23 2 22 -17 -3 -23 -15 -4 -19 -13
-18 -42 0 -20 5 -42 11 -48 6 -9 5 -18 -2 -27 -7 -8 -11 -27 -9 -43 l4 -28 12
25 c23 47 54 94 69 106 12 8 14 19 9 39 l-7 29 21 -25 21 -24 -6 25 c-5 20 -4
22 5 10 9 -13 12 -13 24 2 7 10 17 18 21 18 14 0 75 59 66 64 -5 3 -17 -4 -27
-15 -14 -16 -26 -19 -50 -15 -39 8 -64 -1 -57 -20 4 -10 0 -12 -11 -8 -9 3
-13 10 -10 15 3 5 1 9 -4 9 -6 0 -13 12 -18 28 -9 30 -12 372 -4 372 3 0 2 33
-4 73 -11 87 -1 167 20 167 11 0 14 -17 14 -83 0 -58 5 -89 15 -103 8 -10 15
-27 15 -36 0 -30 27 -20 34 12 5 27 9 30 46 30 22 0 40 -4 40 -10 0 -5 -18
-10 -40 -10 -22 0 -40 -5 -40 -11 0 -7 17 -10 45 -7 34 2 45 0 45 -11 0 -37
21 11 33 75 l14 69 8 -48 c5 -35 4 -56 -6 -74 -11 -21 -11 -27 -2 -30 7 -3 14
-12 14 -21 2 -20 14 43 28 141 5 38 12 71 15 75 3 3 6 -29 6 -71 0 -42 4 -78
9 -81 16 -10 25 142 24 398 -2 243 -8 296 -33 257 -7 -12 -11 -12 -24 -2 -11
9 -58 12 -176 10 l-160 -3 2 -566z m55 338 c-2 -24 -4 -7 -4 37 0 44 2 63 4
43 2 -21 2 -57 0 -80z m86 -365 c5 -63 4 -68 -12 -58 -13 7 -15 115 -2 115 5
0 11 -26 14 -57z m15 -530 c6 -19 -25 -16 -32 3 -4 11 -1 14 11 12 9 -2 18 -9
21 -15z m-88 -67 c0 -3 -4 -8 -10 -11 -5 -3 -10 -1 -10 4 0 6 5 11 10 11 6 0
10 -2 10 -4z"/>
<path d="M2090 1506 c0 -8 9 -17 19 -21 11 -3 22 -13 25 -21 3 -8 10 -12 16
-9 13 8 6 19 -30 45 -24 17 -30 18 -30 6z"/>
<path d="M2135 1380 c-7 -12 2 -30 16 -30 12 0 12 27 0 35 -5 3 -12 1 -16 -5z"/>
<path d="M3137 1240 c-11 -10 -14 -21 -8 -24 10 -7 41 19 41 35 0 14 -13 10
-33 -11z"/>
<path d="M2545 1062 c-6 -4 -31 -38 -57 -77 -25 -38 -56 -80 -68 -93 -19 -20
-23 -21 -49 -8 -15 8 -33 21 -40 29 -12 15 -51 12 -51 -4 0 -5 25 -24 56 -44
30 -20 54 -39 52 -43 -2 -4 -14 -29 -27 -57 -13 -27 -28 -58 -32 -67 -5 -10
-9 -23 -9 -28 0 -21 21 2 45 50 27 53 50 80 69 80 8 0 36 -18 64 -40 27 -22
54 -40 59 -40 6 0 18 -9 28 -20 20 -22 35 -18 35 10 0 11 -16 28 -37 41 -21
12 -54 35 -73 51 -19 16 -41 33 -48 39 -9 8 -9 15 3 37 46 81 72 121 88 136 9
10 17 20 17 24 -1 16 -16 30 -25 24z"/>
<path d="M2980 970 c0 -5 5 -10 10 -10 6 0 10 5 10 10 0 6 -4 10 -10 10 -5 0
-10 -4 -10 -10z"/>
<path d="M2240 930 c0 -5 5 -10 10 -10 6 0 10 5 10 10 0 6 -4 10 -10 10 -5 0
-10 -4 -10 -10z"/>
<path d="M3062 884 c-7 -8 -8 -14 -3 -14 10 0 25 19 20 25 -2 1 -10 -3 -17
-11z"/>
<path d="M121 755 c1 -47 5 -85 9 -85 12 0 22 88 15 131 -12 68 -25 42 -24
-46z"/>
<path d="M160 772 c0 -15 5 -19 20 -15 22 6 38 23 21 23 -5 0 -16 3 -25 6 -11
4 -16 0 -16 -14z"/>
<path d="M1203 710 c7 -26 -14 -71 -30 -65 -9 3 -13 -5 -13 -22 0 -26 0 -26
21 -7 23 20 49 73 49 99 0 8 -7 15 -16 15 -11 0 -15 -6 -11 -20z"/>
<path d="M1170 690 c0 -5 5 -10 10 -10 6 0 10 5 10 10 0 6 -4 10 -10 10 -5 0
-10 -4 -10 -10z"/>
<path d="M660 669 c0 -5 5 -7 10 -4 6 3 10 8 10 11 0 2 -4 4 -10 4 -5 0 -10
-5 -10 -11z"/>
<path d="M3106 672 c-2 -4 -1 -14 3 -21 6 -9 10 -7 14 8 5 20 -7 29 -17 13z"/>
<path d="M2995 652 c-6 -4 -17 -32 -24 -62 -8 -30 -17 -59 -21 -65 -4 -5 -15
-34 -25 -63 -14 -43 -19 -51 -31 -41 -8 6 -14 17 -14 23 0 6 -12 23 -27 37
-16 13 -50 51 -78 83 -67 79 -74 86 -91 86 -30 0 -11 -30 71 -114 47 -47 85
-88 85 -91 0 -3 12 -24 27 -46 27 -40 27 -42 10 -71 -22 -38 -14 -49 13 -20
12 12 24 22 28 22 12 0 32 -23 32 -37 0 -22 65 -107 68 -89 3 15 -25 86 -38
96 -13 10 -40 73 -40 92 0 11 14 39 30 63 17 24 30 49 30 56 0 6 9 27 21 46
33 53 13 124 -26 95z"/>
<path d="M74 636 c-10 -25 1 -79 16 -83 12 -4 12 -3 1 5 -9 6 -12 24 -9 51 4
43 1 51 -8 27z"/>
<path d="M1664 636 c-9 -24 12 -44 28 -28 10 10 8 16 -5 29 -15 15 -17 15 -23
-1z"/>
<path d="M2097 614 c-10 -10 -9 -54 2 -54 12 0 22 43 13 52 -5 5 -11 5 -15 2z"/>
<path d="M300 601 c0 -5 9 -7 20 -4 11 3 20 7 20 9 0 2 -9 4 -20 4 -11 0 -20
-4 -20 -9z"/>
<path d="M1641 594 c0 -11 3 -14 6 -6 3 7 2 16 -1 19 -3 4 -6 -2 -5 -13z"/>
<path d="M268 583 c7 -3 16 -2 19 1 4 3 -2 6 -13 5 -11 0 -14 -3 -6 -6z"/>
<path d="M2116 565 c-5 -21 -1 -32 19 -50 14 -13 25 -31 25 -39 0 -8 5 -18 10
-21 16 -10 12 12 -12 68 -28 68 -34 74 -42 42z"/>
<path d="M368 573 c7 -3 16 -2 19 1 4 3 -2 6 -13 5 -11 0 -14 -3 -6 -6z"/>
<path d="M2266 565 c-3 -9 -6 -24 -5 -33 0 -9 5 -4 10 12 9 32 6 48 -5 21z"/>
<path d="M300 551 c0 -5 9 -7 20 -4 11 3 20 7 20 9 0 2 -9 4 -20 4 -11 0 -20
-4 -20 -9z"/>
<path d="M570 541 c0 -10 36 -21 44 -14 3 3 3 10 0 14 -7 12 -44 12 -44 0z"/>
<path d="M1630 535 c0 -8 7 -15 15 -15 8 0 15 4 15 9 0 5 -7 11 -15 15 -9 3
-15 0 -15 -9z"/>
<path d="M110 520 c0 -5 4 -10 9 -10 6 0 13 5 16 10 3 6 -1 10 -9 10 -9 0 -16
-4 -16 -10z"/>
<path d="M162 518 c6 -18 28 -21 28 -4 0 9 -7 16 -16 16 -9 0 -14 -5 -12 -12z"/>
<path d="M2200 415 c0 -8 5 -15 10 -15 6 0 10 7 10 15 0 8 -4 15 -10 15 -5 0
-10 -7 -10 -15z"/>
<path d="M3230 385 c0 -8 5 -15 10 -15 6 0 10 7 10 15 0 8 -4 15 -10 15 -5 0
-10 -7 -10 -15z"/>
<path d="M1000 325 c-25 -15 -24 -15 16 -13 30 1 40 6 37 15 -7 17 -22 16 -53
-2z"/>
<path d="M1198 318 c9 -9 15 -9 24 0 9 9 7 12 -12 12 -19 0 -21 -3 -12 -12z"/>
<path d="M924 295 c-10 -8 -14 -14 -9 -14 6 0 19 6 29 14 11 8 15 15 10 15 -6
0 -19 -7 -30 -15z"/>
<path d="M1255 300 c3 -5 22 -10 41 -10 21 0 33 4 29 10 -3 6 -22 10 -41 10
-21 0 -33 -4 -29 -10z"/>
<path d="M1360 280 c0 -5 11 -10 25 -10 14 0 25 5 25 10 0 6 -11 10 -25 10
-14 0 -25 -4 -25 -10z"/>
<path d="M880 270 c-9 -6 -10 -10 -3 -10 6 0 15 5 18 10 8 12 4 12 -15 0z"/>
<path d="M1458 263 c12 -2 30 -2 40 0 9 3 -1 5 -23 4 -22 0 -30 -2 -17 -4z"/>
<path d="M2835 251 c-3 -5 -1 -12 5 -16 5 -3 10 1 10 9 0 18 -6 21 -15 7z"/>
<path d="M1608 243 c7 -3 16 -2 19 1 4 3 -2 6 -13 5 -11 0 -14 -3 -6 -6z"/>
<path d="M3163 202 c-27 -104 -26 -100 -8 -69 8 15 20 27 25 27 12 0 14 77 2
84 -4 2 -13 -17 -19 -42z"/>
<path d="M809 225 c-39 -21 -189 -225 -166 -225 16 0 47 32 47 48 0 17 20 15
26 -3 5 -13 11 -11 31 9 18 18 24 36 25 67 0 46 22 89 44 89 13 0 29 18 23 25
-2 2 -16 -3 -30 -10z m-45 -106 c-3 -5 -10 -7 -15 -3 -5 3 -7 10 -3 15 3 5 10
7 15 3 5 -3 7 -10 3 -15z"/>
<path d="M2817 223 c-4 -3 -7 -11 -7 -17 0 -6 5 -5 12 2 6 6 9 14 7 17 -3 3
-9 2 -12 -2z"/>
<path d="M796 173 c-6 -14 -5 -15 5 -6 7 7 10 15 7 18 -3 3 -9 -2 -12 -12z"/>
<path d="M1804 175 c-16 -12 -16 -14 -3 -15 9 0 22 7 29 15 16 19 0 19 -26 0z"/>
<path d="M1880 181 c0 -6 4 -13 10 -16 6 -3 7 1 4 9 -7 18 -14 21 -14 7z"/>
<path d="M1774 140 c-25 -10 -41 -30 -25 -30 6 0 11 5 11 10 0 6 6 10 14 10 8
0 18 5 21 10 7 12 7 12 -21 0z"/>
<path d="M1595 130 c4 -6 11 -8 16 -5 14 9 11 15 -7 15 -8 0 -12 -5 -9 -10z"/>
<path d="M3350 80 c0 -5 5 -10 11 -10 5 0 7 5 4 10 -3 6 -8 10 -11 10 -2 0 -4
-4 -4 -10z"/>
<path d="M1660 61 c-19 -11 -44 -28 -54 -40 -19 -21 -19 -21 18 -21 28 0 45 7
67 29 50 50 34 66 -31 32z"/>
<path d="M3451 54 c0 -11 3 -14 6 -6 3 7 2 16 -1 19 -3 4 -6 -2 -5 -13z"/>
<path d="M3160 10 c0 -5 5 -10 10 -10 6 0 10 5 10 10 0 6 -4 10 -10 10 -5 0
-10 -4 -10 -10z"/>
<path d="M3385 10 c-3 -5 -1 -10 4 -10 6 0 11 5 11 10 0 6 -2 10 -4 10 -3 0
-8 -4 -11 -10z"/>
</g>
</svg>
